<svg id="livetype" xmlns="http://www.w3.org/2000/svg" xmlns:xlink="http://www.w3.org/1999/xlink" viewBox="0 0 119.66 40"><defs><style>.cls-1{fill:#b7b7b7;}.cls-2,.cls-9{fill:#fff;}.cls-3{fill:url(#linear-gradient);}.cls-4{fill:url(#linear-gradient-2);}.cls-5{fill:url(#linear-gradient-3);}.cls-6{fill:url(#linear-gradient-4);}.cls-7,.cls-8{fill:#020101;}.cls-7{opacity:0.2;}.cls-7,.cls-8,.cls-9{isolation:isolate;}.cls-8{opacity:0.12;}.cls-9{opacity:0.25;}</style><linearGradient id="linear-gradient" x1="20.63" y1="-248.57" x2="6.16" y2="-263.04" gradientTransform="matrix(1, 0, 0, -1, 0, -238.61)" gradientUnits="userSpaceOnUse"><stop offset="0" stop-color="#4699d0"/><stop offset="0.01" stop-color="#459ad1"/><stop offset="0.26" stop-color="#1abaeb"/><stop offset="0.51" stop-color="#4ec3ed"/><stop offset="0.76" stop-color="#6ac8e7"/><stop offset="1" stop-color="#72cae5"/></linearGradient><linearGradient id="linear-gradient-2" x1="31.01" y1="-258.31" x2="10.14" y2="-258.31" gradientTransform="matrix(1, 0, 0, -1, 0, -238.61)" gradientUnits="userSpaceOnUse"><stop offset="0" stop-color="#ffe103"/><stop offset="0.41" stop-color="#fdbd00"/><stop offset="0.78" stop-color="#f8a500"/><stop offset="1" stop-color="#f69b00"/></linearGradient><linearGradient id="linear-gradient-3" x1="23.24" y1="-260.29" x2="3.62" y2="-279.91" gradientTransform="matrix(1, 0, 0, -1, 0, -238.61)" gradientUnits="userSpaceOnUse"><stop offset="0" stop-color="#e93a3d"/><stop offset="1" stop-color="#c41463"/></linearGradient><linearGradient id="linear-gradient-4" x1="8.13" y1="-241.22" x2="16.89" y2="-249.98" gradientTransform="matrix(1, 0, 0, -1, 0, -238.61)" gradientUnits="userSpaceOnUse"><stop offset="0" stop-color="#33a071"/><stop offset="0.07" stop-color="#30a772"/><stop offset="0.48" stop-color="#54b867"/><stop offset="0.8" stop-color="#6bbe66"/><stop offset="1" stop-color="#72c066"/></linearGradient></defs><title>_</title><path class="cls-1" d="M110.09.1H7.48a13.65,13.65,0,0,0-2,.18,6.74,6.74,0,0,0-1.9.63A6.36,6.36,0,0,0,.78,3.72a6.44,6.44,0,0,0-.63,1.9,13.39,13.39,0,0,0-.18,2c0,.31,0,.62,0,.92V31.66c0,.31,0,.61,0,.92a13.39,13.39,0,0,0,.18,2,6.5,6.5,0,0,0,.63,1.91A6.38,6.38,0,0,0,2,38.1a6.24,6.24,0,0,0,1.62,1.18,6.74,6.74,0,0,0,1.9.63,13.65,13.65,0,0,0,2,.18H112.1a13.39,13.39,0,0,0,2-.18,6.91,6.91,0,0,0,1.91-.63,6.55,6.55,0,0,0,2.79-2.79,6.48,6.48,0,0,0,.62-1.91,12.2,12.2,0,0,0,.19-2v-.92c0-.37,0-.73,0-1.1V9.64c0-.37,0-.73,0-1.1V7.62a12.2,12.2,0,0,0-.19-2,6.42,6.42,0,0,0-.62-1.9,6.07,6.07,0,0,0-1.18-1.62A6.19,6.19,0,0,0,116,.92,6.91,6.91,0,0,0,114.1.29a13.39,13.39,0,0,0-2-.18h-2Z"/><path d="M8.4,39.22H7.5a11.43,11.43,0,0,1-1.87-.16A5.79,5.79,0,0,1,4,38.5a5.38,5.38,0,0,1-1.4-1,5.65,5.65,0,0,1-1-1.4A5.88,5.88,0,0,1,1,34.43a13.63,13.63,0,0,1-.17-1.87c0-.21,0-.92,0-.92V8.54s0-.69,0-.89A13.36,13.36,0,0,1,1,5.78a5.85,5.85,0,0,1,.54-1.67,5.42,5.42,0,0,1,1-1.39,5.45,5.45,0,0,1,1.4-1,6,6,0,0,1,1.65-.54A12.32,12.32,0,0,1,7.5,1l.9,0H111.17l.91,0a11.88,11.88,0,0,1,1.86.16,5.56,5.56,0,0,1,1.67.55,5.16,5.16,0,0,1,1.39,1,5.46,5.46,0,0,1,1.56,3.06,12.19,12.19,0,0,1,.18,1.88v.89c0,.38,0,.74,0,1.1V30.56c0,.37,0,.72,0,1.08v.93a11.82,11.82,0,0,1-.18,1.85,5.28,5.28,0,0,1-.54,1.67,5.39,5.39,0,0,1-1,1.39,5.19,5.19,0,0,1-1.4,1,6,6,0,0,1-1.67.55,11.34,11.34,0,0,1-1.87.16H8.4Z"/><path class="cls-2" d="M59.72,21.2a3.67,3.67,0,1,0,3.68,3.67A3.63,3.63,0,0,0,59.72,21.2Zm0,5.89a2.23,2.23,0,1,1,2.06-2.22A2.11,2.11,0,0,1,59.72,27.09Zm-8-5.89a3.67,3.67,0,1,0,3.68,3.67A3.62,3.62,0,0,0,51.69,21.2Zm0,5.89a2.23,2.23,0,1,1,2.07-2.22A2.11,2.11,0,0,1,51.69,27.09Zm-9.56-4.76v1.55h3.73a3.25,3.25,0,0,1-.85,2A3.82,3.82,0,0,1,42.13,27a4.14,4.14,0,0,1,0-8.28,4,4,0,0,1,2.81,1.12l1.1-1.1a5.43,5.43,0,0,0-3.91-1.57,5.7,5.7,0,1,0,0,11.39,5.22,5.22,0,0,0,4-1.6,5.17,5.17,0,0,0,1.34-3.64,4.75,4.75,0,0,0-.08-1ZM81.2,23.54a3.42,3.42,0,0,0-3.14-2.34,3.49,3.49,0,0,0-3.46,3.67,3.59,3.59,0,0,0,3.64,3.67,3.63,3.63,0,0,0,3.05-1.63L80,26.08a2.07,2.07,0,0,1-1.8,1A1.86,1.86,0,0,1,76.46,26l4.9-2Zm-5,1.22a2,2,0,0,1,1.91-2.14,1.42,1.42,0,0,1,1.36.78Zm-4,3.56h1.61V17.54H72.21ZM69.57,22h0a2.57,2.57,0,0,0-1.94-.82,3.67,3.67,0,0,0,0,7.34,2.51,2.51,0,0,0,1.94-.84h0v.53a1.88,1.88,0,0,1-2,2.15,2,2,0,0,1-1.84-1.3l-1.41.58a3.49,3.49,0,0,0,3.25,2.17c1.89,0,3.49-1.11,3.49-3.82V21.43H69.57Zm-1.85,5.07a2.23,2.23,0,0,1,0-4.44,2.06,2.06,0,0,1,2,2.23A2,2,0,0,1,67.72,27.09Zm21-9.55H84.89V28.32H86.5V24.23h2.24a3.35,3.35,0,1,0,0-6.69Zm0,5.19H86.5V19h2.28a1.85,1.85,0,1,1,0,3.69Zm10-1.55a3,3,0,0,0-2.87,1.65l1.42.6a1.53,1.53,0,0,1,1.47-.79,1.56,1.56,0,0,1,1.7,1.39v.11a3.56,3.56,0,0,0-1.68-.42c-1.54,0-3.11.85-3.11,2.43a2.49,2.49,0,0,0,2.68,2.37,2.28,2.28,0,0,0,2-1.05h.06v.83H102V24.17A3,3,0,0,0,98.73,21.18Zm-.2,5.91c-.52,0-1.26-.26-1.26-.91,0-.84.92-1.15,1.71-1.15a2.87,2.87,0,0,1,1.47.36A2,2,0,0,1,98.53,27.09Zm9.13-5.67-1.85,4.67h0l-1.92-4.67h-1.73L105,28l-1.64,3.63H105l4.42-10.16Zm-14.49,6.9h1.6V17.54h-1.6Z"/><path class="cls-3" d="M10.83,9a1.74,1.74,0,0,0-.4,1.21V29.23a1.74,1.74,0,0,0,.4,1.21l.07.06L21.58,19.82v-.25L10.9,8.89Z"/><path class="cls-4" d="M25.14,23.38l-3.56-3.56v-.25L25.14,16l.08,0,4.22,2.4a1.31,1.31,0,0,1,0,2.49l-4.22,2.4Z"/><path class="cls-5" d="M25.22,23.34l-3.64-3.65L10.83,30.44a1.4,1.4,0,0,0,1.79,0l12.6-7.15"/><path class="cls-6" d="M25.22,16.05,12.62,8.9a1.4,1.4,0,0,0-1.79,0L21.58,19.69Z"/><path class="cls-7" d="M25.14,23.26,12.62,30.37a1.44,1.44,0,0,1-1.72,0h0l-.07.06h0l.07.06h0a1.42,1.42,0,0,0,1.72,0l12.6-7.15Z"/><path class="cls-8" d="M10.83,30.31a1.71,1.71,0,0,1-.4-1.21v.13a1.74,1.74,0,0,0,.4,1.21l.07-.06Z"/><path class="cls-8" d="M29.44,20.81l-4.3,2.45.08.08,4.22-2.4a1.51,1.51,0,0,0,.9-1.24h0A1.62,1.62,0,0,1,29.44,20.81Z"/><path class="cls-9" d="M12.62,9l16.82,9.56a1.62,1.62,0,0,1,.9,1.11h0a1.51,1.51,0,0,0-.9-1.24L12.62,8.9c-1.2-.69-2.19-.12-2.19,1.26v.13C10.43,8.91,11.42,8.34,12.62,9Z"/><path class="cls-2" d="M36.9,13.76V8.38h1.64a2.64,2.64,0,0,1,2,.74,2.6,2.6,0,0,1,.75,1.94A2.61,2.61,0,0,1,40.52,13a2.65,2.65,0,0,1-2,.75ZM37.59,9v4.05h.95A2,2,0,0,0,40,12.56a2,2,0,0,0,.55-1.5,1.88,1.88,0,0,0-2-2Z"/><path class="cls-2" d="M42.63,13.76h-.69V8.38h.69Z"/><path class="cls-2" d="M46.88,12.32a1.39,1.39,0,0,1-.51,1.13,1.94,1.94,0,0,1-1.28.43,1.83,1.83,0,0,1-1.18-.4,2,2,0,0,1-.71-1.06l.66-.27a1.67,1.67,0,0,0,.47.77,1.31,1.31,0,0,0,.36.21,1,1,0,0,0,.41.08,1.21,1.21,0,0,0,.78-.24.79.79,0,0,0,.3-.65.76.76,0,0,0-.25-.58,2.52,2.52,0,0,0-.87-.45c-.43-.16-.7-.26-.81-.32a1.37,1.37,0,0,1-.85-1.28,1.34,1.34,0,0,1,.47-1,1.72,1.72,0,0,1,1.18-.42,1.83,1.83,0,0,1,1.07.32,1.49,1.49,0,0,1,.6.77l-.65.27a1,1,0,0,0-.35-.49,1,1,0,0,0-.65-.2,1.08,1.08,0,0,0-.69.22.67.67,0,0,0-.28.55.64.64,0,0,0,.22.48,3.48,3.48,0,0,0,1,.48,2.78,2.78,0,0,1,1.17.68A1.47,1.47,0,0,1,46.88,12.32Z"/><path class="cls-2" d="M48.26,11.58v2.18h-.69V8.38H49.4a1.66,1.66,0,0,1,1.19.46,1.57,1.57,0,0,1,0,2.28,1.69,1.69,0,0,1-1.19.46Zm0-2.54v1.87h1.16a.93.93,0,0,0,.68-.27.9.9,0,0,0,.28-.66.88.88,0,0,0-.28-.66A.9.9,0,0,0,49.42,9Z"/><path class="cls-2" d="M56.85,11.06a2.72,2.72,0,0,1-.8,2,2.78,2.78,0,0,1-3.94,0,2.71,2.71,0,0,1-.79-2,2.71,2.71,0,0,1,.79-2,2.78,2.78,0,0,1,3.94,0A2.73,2.73,0,0,1,56.85,11.06Zm-4.83,0a2.15,2.15,0,0,0,.59,1.55,2,2,0,0,0,1.47.6,2,2,0,0,0,1.47-.6,2.15,2.15,0,0,0,.59-1.55,2.13,2.13,0,0,0-.59-1.54,2,2,0,0,0-1.47-.6,2,2,0,0,0-1.47.6A2.14,2.14,0,0,0,52,11.06Z"/><path class="cls-2" d="M58.21,13.76h-.69V8.38h.84L61,12.56h0l0-1V8.38h.7v5.38h-.73L58.21,9.37h0l0,1Z"/><path class="cls-2" d="M63.29,13.76H62.6V8.38h.69Z"/><path class="cls-2" d="M64.22,13.76V8.38h2a1.51,1.51,0,0,1,1.09.42,1.32,1.32,0,0,1,.46,1A1.14,1.14,0,0,1,67,11v0a1.28,1.28,0,0,1,.66.47,1.22,1.22,0,0,1,.25.76,1.43,1.43,0,0,1-.48,1.1,1.62,1.62,0,0,1-1.15.44ZM64.91,9v1.64h1.26a.81.81,0,0,0,.61-.25A.79.79,0,0,0,67,9.85.82.82,0,0,0,66.2,9Zm0,2.29v1.76H66.3a.89.89,0,0,0,.9-.88.84.84,0,0,0-.27-.62.9.9,0,0,0-.66-.26Z"/><path class="cls-2" d="M71.55,13.76h-3V8.38h.69v4.71h2.33Z"/><path class="cls-2" d="M75.26,8.38V9H72.82v1.7H75v.65h-2.2v1.7h2.44v.67H72.12V8.38Z"/><path class="cls-2" d="M80.64,12.32a1.39,1.39,0,0,1-.51,1.13,1.94,1.94,0,0,1-1.28.43,1.83,1.83,0,0,1-1.18-.4A2,2,0,0,1,77,12.42l.66-.27a1.67,1.67,0,0,0,.47.77,1.31,1.31,0,0,0,.36.21,1,1,0,0,0,.41.08,1.21,1.21,0,0,0,.78-.24.79.79,0,0,0,.3-.65.76.76,0,0,0-.25-.58,2.52,2.52,0,0,0-.87-.45c-.43-.16-.7-.26-.81-.32a1.37,1.37,0,0,1-.85-1.28,1.34,1.34,0,0,1,.47-1,1.72,1.72,0,0,1,1.18-.42,1.83,1.83,0,0,1,1.07.32,1.49,1.49,0,0,1,.6.77l-.65.27a1,1,0,0,0-.35-.49,1,1,0,0,0-.65-.2,1.08,1.08,0,0,0-.69.22.67.67,0,0,0-.28.55.64.64,0,0,0,.22.48,3.48,3.48,0,0,0,1,.48,2.67,2.67,0,0,1,1.16.68A1.43,1.43,0,0,1,80.64,12.32Z"/><path class="cls-2" d="M83.2,13.88a1.87,1.87,0,0,1-1.44-.59,2.13,2.13,0,0,1-.55-1.53V8.38h.69v3.41a1.44,1.44,0,0,0,.35,1,1.19,1.19,0,0,0,1,.38,1.2,1.2,0,0,0,1-.38,1.49,1.49,0,0,0,.35-1V8.38h.69v3.38a2.14,2.14,0,0,1-.54,1.54A1.9,1.9,0,0,1,83.2,13.88Z"/></svg>